<svg xmlns="http://www.w3.org/2000/svg" xmlns:xlink="http://www.w3.org/1999/xlink" width="300" height="239.735" viewBox="0 0 300 239.735">
    <defs>
        <linearGradient id="prefix__linear-gradient" x1=".979" x2="-.167" y1=".377" y2=".564" gradientUnits="objectBoundingBox">
            <stop offset="0" stop-color="#adebfb" stop-opacity=".502"/>
            <stop offset="1" stop-color="#13d1f3" stop-opacity="0"/>
        </linearGradient>
        <linearGradient id="prefix__linear-gradient-2" x1="1.402" x2="-.107" y1="1.013" y2=".186" xlink:href="#prefix__linear-gradient"/>
        <linearGradient id="prefix__linear-gradient-3" x1="1.682" x2=".173" y1="1.167" y2=".34" xlink:href="#prefix__linear-gradient"/>
        <linearGradient id="prefix__linear-gradient-4" x1="1.084" x2="-.5" y1=".829" y2="-.103" xlink:href="#prefix__linear-gradient"/>
        <style>
            .prefix__cls-10,.prefix__cls-12,.prefix__cls-13,.prefix__cls-14,.prefix__cls-17,.prefix__cls-19,.prefix__cls-26,.prefix__cls-29,.prefix__cls-31,.prefix__cls-33,.prefix__cls-37,.prefix__cls-7,.prefix__cls-8,.prefix__cls-9{fill-rule:evenodd}.prefix__cls-7{fill:#fff}.prefix__cls-8{fill:#f09959}.prefix__cls-9{fill:#e38540}.prefix__cls-10{fill:#ffcda9}.prefix__cls-11{fill:#19303f}.prefix__cls-12,.prefix__cls-13,.prefix__cls-14{fill:none;stroke:#19303f;stroke-linecap:round;stroke-linejoin:round}.prefix__cls-17{fill:#abfff4}.prefix__cls-19{fill:#ffd392}.prefix__cls-26{fill:#62eddb}.prefix__cls-29{fill:#eab566}.prefix__cls-31{fill:#d5e1e8}.prefix__cls-33{fill:#c4f6ff}.prefix__cls-37{fill:#2e2d3d}
        </style>
    </defs>
    <g id="prefix__ic_find_doctor" transform="translate(-839 -2789)">
        <g id="prefix__Page-1" transform="translate(839 2789)">
            <g id="prefix__Group-16">
                <path id="prefix__Fill-5904" d="M267.011 159.444q-2.549 4.36-5.439 8.5a147.119 147.119 0 0 1-46.54 33.86c-31.677 14.72-69.173 19.834-103.568 13.442a138.42 138.42 0 0 1-22.96-6.383c-26.135-9.77-49.532-27.463-64.514-50.998C7.706 132.284-9.332 92.3 5.984 62.681c20.062-15.22 52.416-1.492 74.616-.453 15.116.707 20.927-6.462 27.335-17.585q.618-1.072 1.245-2.192a56.868 56.868 0 0 1 11.171-14.1 48.853 48.853 0 0 1 22.484-11.941c18.864-4.105 40.666 3.231 51.406 19.658 4.383 6.691 6.852 14.409 10.251 21.65 13.037 27.789 47.4 24.04 65.521 45.929 13.84 16.721 6.8 39-3 55.8" transform="translate(0 5.189)" style="fill-rule:evenodd;fill:rgba(173,235,251,.5)"/>
                <g id="prefix__Group-6165" transform="translate(76.93 7.245)">
                    <path id="prefix__Fill-6163" d="M67.045 222.309a138.478 138.478 0 0 1-15.815-.909A136.05 136.05 0 0 1 .636 205.272H5.86a133.9 133.9 0 0 0 45.651 13.68 136.145 136.145 0 0 0 15.534.893c2.625 0 5.278-.078 7.882-.232a162.338 162.338 0 0 0 33.641-5.676q1.062-.294 2.123-.6l.99-.291q2.74-.815 5.463-1.722.527-.175 1.054-.354 2.941-1 5.848-2.107l.565-.216c.188-.072.381-.146.569-.22q3.2-1.241 6.348-2.606c.416-.18.828-.361 1.242-.545q3.559-1.573 7.047-3.3c.467-.232.936-.468 1.4-.7q4.134-2.1 8.149-4.407c.562-.323 1.117-.648 1.675-.976q5.327-3.149 10.4-6.662 1.2-.831 2.375-1.678 3.623-2.605 7.083-5.392a147.215 147.215 0 0 0 27.724-29.417l.015-.02q.8-1.125 1.572-2.264 3.279-4.824 6.115-9.857.433-.767.853-1.538l.016-.031q2.04-3.736 3.824-7.564c.2-.428.4-.86.591-1.29q1.446-3.2 2.707-6.449c.146-.376.291-.754.432-1.131q1.615-4.287 2.893-8.646a82.337 82.337 0 0 0 3.645-22.854c-.02-11.17-3.316-22.062-13.262-29.41-9.686-7.155-21.08-8.867-33.143-10.679a142.066 142.066 0 0 1-18.4-3.6c-8.7-2.517-16.907-6.715-23.624-14.991-1.674-2.061-3.271-4.211-4.818-6.29a85.735 85.735 0 0 0-10.11-12.017c-7.8-7.243-18.565-11.23-30.322-11.23-.408 0-.814 0-1.221.015a48.974 48.974 0 0 0-20.368 4.9c-12.027 5.919-21.19 17.526-25.14 31.845-.652 2.365-1.3 4.6-2 6.711a48.948 48.948 0 0 1-3.167 7.619H32.87a38.53 38.53 0 0 0 3.244-7.126c.857-2.425 1.618-5.05 2.393-7.86 3.881-14.079 13.178-26.881 26.426-33.4A51.646 51.646 0 0 1 87.609.423a52.373 52.373 0 0 1 6.6.416 45.572 45.572 0 0 1 25.4 11.471c5.862 5.444 10.124 12.35 15.164 18.561a41.541 41.541 0 0 0 19.873 13.4c17.734 5.946 38.686 3.506 54.844 15.443 11.675 8.625 14.892 21.91 14.106 35.351a88.938 88.938 0 0 1-3.581 19.578q-1.656 5.645-3.829 11.1l-.032.082-.343.852q-1.374 3.38-2.935 6.677-.318.672-.645 1.343-1.966 4.038-4.2 7.943-.479.837-.97 1.668-3.293 5.575-7.1 10.838c-.312.432-.629.865-.946 1.294q-.515.7-1.038 1.387a150.533 150.533 0 0 1-25.527 26.244q-1.644 1.322-3.324 2.607-.71.543-1.43 1.081l-.347.259-.994.734q-5.522 4.042-11.406 7.664l-.87.532c-.291.177-.6.366-.909.549q-4.2 2.517-8.546 4.8c-.483.255-.97.508-1.455.758q-3.6 1.853-7.283 3.541c-.425.194-.853.389-1.278.581q-1.672.75-3.357 1.466a170.436 170.436 0 0 1-56.177 13.428q-4 .235-8.027.235" transform="translate(-.636 -.423)"/>
                </g>
                <g id="prefix__Group-6168" transform="translate(240.545)">
                    <path id="prefix__Fill-6166" d="M.839 28.562a27.3 27.3 0 0 0 13.82 19.944c13.431 7.607 34.848 4.583 41.19-11.129 7.269-18.013-11.917-35.3-28.5-37.2C11.388-1.654-1.181 13.129.839 28.562" transform="translate(-.626 -.021)"/>
                </g>
                <g id="prefix__Group-6171" transform="translate(180.402 187.257)">
                    <path id="prefix__Fill-6169" d="M1 29.179a27.3 27.3 0 0 0 13.82 19.944C28.248 56.73 49.665 53.7 56.009 37.992c7.269-18.01-11.918-35.3-28.5-37.2C11.546-1.036-1.023 13.744 1 29.179" transform="translate(-.784 -.638)"/>
                </g>
                <g id="prefix__Group-6174" transform="translate(81.786 21.754)">
                    <path id="prefix__Fill-6172" d="M.328 12.95c.814 6.97 9.067 10.942 15.467 8.926C27.1 18.317 27.255 1.011 14.285.263 7.2-.147-.572 5.251.328 12.95" transform="translate(-.257 -.241)"/>
                </g>
            </g>
        </g>
        <g id="prefix__Group_1424" data-name="Group 1424" transform="translate(874 2836.5)">
            <g id="prefix__Page-1-2" data-name="Page-1">
                <g id="prefix__Group-15">
                    <path id="prefix__Fill-17" d="M0 238.624h66.06V130.347H0z" transform="translate(0 -110.541)" style="fill:#35d6c1;fill-rule:evenodd"/>
                    <path id="prefix__Fill-18" d="M22.768 246.809H83.2V144.866H22.768z" class="prefix__cls-7" transform="translate(-19.308 -122.853)"/>
                    <g id="prefix__Group-14" transform="translate(22.428 32.48)">
                        <path id="prefix__Fill-21" d="M62.6 94.714c-.721 1.064-1.249 1.108-2.031 0-.622-.881-1.846-2.882-1.846-3.9V80.681a1.852 1.852 0 0 1 1.846-1.846H62.6a1.852 1.852 0 0 1 1.846 1.846v10.136c0 1.015-1.2 2.944-1.846 3.9" class="prefix__cls-8" transform="translate(-49.803 -66.856)"/>
                        <path id="prefix__Fill-22" d="M62.6 78.835h-2.028a1.852 1.852 0 0 0-1.846 1.846v9.043c2.28.726 4.362-.717 5.724-2.343v-6.7a1.852 1.852 0 0 0-1.85-1.846" class="prefix__cls-9" transform="translate(-49.803 -66.856)"/>
                        <path id="prefix__Fill-23" d="M48.377 33.119c0 4.784-2.959 8.661-6.61 8.661s-6.61-3.878-6.61-8.661 2.96-8.661 6.61-8.661 6.61 3.878 6.61 8.661" class="prefix__cls-10" transform="translate(-29.815 -20.742)"/>
                        <g id="prefix__Group-13" transform="translate(6.961 10.333)">
                            <g id="prefix__Group-11" transform="translate(.561 .38)">
                                <path id="prefix__Path" d="M43.159 2.333A1.029 1.029 0 0 1 42.13 1.3v-.271a1.029 1.029 0 1 1 2.059 0V1.3a1.029 1.029 0 0 1-1.03 1.033z" class="prefix__cls-11" transform="translate(-35.728)"/>
                                <path id="prefix__Path-2" d="M1.029 2.333A1.029 1.029 0 0 1 0 1.3v-.271a1.029 1.029 0 1 1 2.059 0V1.3a1.029 1.029 0 0 1-1.03 1.033z" class="prefix__cls-11" data-name="Path"/>
                            </g>
                            <g id="prefix__Group-12" transform="translate(8.083)">
                                <path id="prefix__Line-2" d="M2 1.608a2.147 2.147 0 0 0 .456-.2A1.194 1.194 0 0 0 2.912 1" class="prefix__cls-12" transform="translate(-1.696 -.848)"/>
                                <path id="prefix__Line-2-2" d="M0 .608a2.147 2.147 0 0 0 .456-.2A1.194 1.194 0 0 0 .912 0" class="prefix__cls-12" data-name="Line-2"/>
                                <path id="prefix__Line-2-3" d="M0 .608a2.147 2.147 0 0 0 .456-.2A1.194 1.194 0 0 0 .912 0" class="prefix__cls-12" data-name="Line-2" transform="rotate(6 -3.743 3.43)"/>
                                <path id="prefix__Line-2-4" d="M0 .608a2.147 2.147 0 0 0 .456-.2A1.194 1.194 0 0 0 .912 0" class="prefix__cls-12" data-name="Line-2" transform="rotate(11 -4.2 1.547)"/>
                            </g>
                            <g id="prefix__Group-12-2" data-name="Group-12" transform="rotate(180 .623 .8)">
                                <path id="prefix__Line-2-5" d="M0 0a2.147 2.147 0 0 1 .456.2 1.194 1.194 0 0 1 .456.408" class="prefix__cls-12" data-name="Line-2" transform="translate(.304 .841)"/>
                                <path id="prefix__Line-2-6" d="M0 0a2.147 2.147 0 0 1 .456.2 1.194 1.194 0 0 1 .456.408" class="prefix__cls-12" data-name="Line-2" transform="translate(0 .993)"/>
                                <path id="prefix__Line-2-7" d="M0 0a2.147 2.147 0 0 1 .456.2 1.194 1.194 0 0 1 .456.408" class="prefix__cls-13" data-name="Line-2" transform="rotate(-6.02 5.712 -2.318)"/>
                                <path id="prefix__Line-2-8" d="M0 0a2.147 2.147 0 0 1 .456.2 1.194 1.194 0 0 1 .456.408" class="prefix__cls-14" data-name="Line-2" transform="rotate(-11 .955 -.443)"/>
                            </g>
                        </g>
                        <path id="prefix__Fill-24" d="M31.66 23.772c-.753-.24.175-9.273 4.722-9.735s7.224 1.363 8.147 4.375a40.805 40.805 0 0 1 1.3 6.478s-1.564-.4-3.517-4.483a21.556 21.556 0 0 1-1.012-3.139c-3.88 6.555-8.887 6.743-9.64 6.504z" transform="translate(-26.651 -11.843)" style="fill:#3a384d;fill-rule:evenodd"/>
                        <path id="prefix__Fill-27" d="M66.988 109.368a3.5 3.5 0 0 1-2.308 1.34 3.5 3.5 0 0 1-2.308-1.34h4.616" class="prefix__cls-7" transform="translate(-52.894 -92.749)"/>
                        <path id="prefix__Combined-Shape" d="M11.739 0a7.821 7.821 0 0 1 6.1 2.662c3.126 3.873 1.921 10.671 2.1 14.759.168 3.814.389 5.517 1.747 7.611a13.511 13.511 0 0 1 1.866 5.055H0a12.23 12.23 0 0 1 1.764-5.055c1.321-1.952 1.321-1.952 2.073-7.611.363-5.842-1.428-9.777 1.917-14.759C6.874.992 9.828 0 11.739 0zm-.014 2.887c-3.248 0-5.839 3.7-6.281 5.628s.323 6.022 1.638 8.356 2.26 3.794 4.643 3.794 3.353-1.569 4.786-3.794 2.171-6.163 1.433-8.356-2.971-5.628-6.219-5.628z" style="fill:#c8c8c8;fill-rule:evenodd"/>
                    </g>
                    <path id="prefix__Fill-28" d="M176.664 481.106h-15.5a1.8 1.8 0 0 1 0-3.606h15.5a1.8 1.8 0 0 1 0 3.606" class="prefix__cls-17" transform="translate(-135.142 -404.943)"/>
                    <path id="prefix__Fill-29" d="M163.66 517.557h-21.181a1.8 1.8 0 0 1 0-3.606h21.181a1.8 1.8 0 0 1 0 3.606" class="prefix__cls-17" transform="translate(-119.3 -435.856)"/>
                    <path id="prefix__Fill-30" d="M98.384 657.1H46.861a1.046 1.046 0 0 1 0-2.092h51.523a1.046 1.046 0 0 1 0 2.092" class="prefix__cls-17" transform="translate(-38.853 -555.478)"/>
                    <path id="prefix__Fill-31" d="M98.384 689.095H46.861a1.046 1.046 0 1 1 0-2.092h51.523a1.046 1.046 0 1 1 0 2.092" class="prefix__cls-17" transform="translate(-38.853 -582.612)"/>
                    <path id="prefix__Fill-32" d="M98.384 721.092H46.861a1.046 1.046 0 0 1 0-2.092h51.523a1.046 1.046 0 0 1 0 2.092" class="prefix__cls-17" transform="translate(-38.853 -609.747)"/>
                    <path id="prefix__Fill-33" d="M89.7 173.657a.353.353 0 0 0-.348.348v34.2a.353.353 0 0 0 .348.348h37.11a.353.353 0 0 0 .348-.348V174a.353.353 0 0 0-.348-.348zm37.111 36.419H89.7a1.87 1.87 0 0 1-1.868-1.868V174a1.87 1.87 0 0 1 1.868-1.868h37.11a1.87 1.87 0 0 1 1.868 1.868v34.2a1.87 1.87 0 0 1-1.868 1.868z" class="prefix__cls-17" transform="translate(-74.486 -145.981)"/>
                    <path id="prefix__Fill-34" d="M115.961 568.632l1.074 2.177 2.4.349-1.738 1.695.41 2.393-2.149-1.13-2.149 1.13.41-2.393-1.738-1.695 2.4-.349 1.074-2.177" class="prefix__cls-17" transform="translate(-95.392 -482.227)"/>
                    <path id="prefix__Fill-35" d="M173.875 568.632l1.074 2.177 2.4.349-1.738 1.695.41 2.393-2.149-1.13-2.149 1.13.41-2.393-1.738-1.695 2.4-.349 1.074-2.177" class="prefix__cls-17" transform="translate(-144.506 -482.227)"/>
                    <path id="prefix__Fill-36" d="M231.79 568.632l1.074 2.177 2.4.349-1.738 1.695.41 2.393-2.149-1.13-2.149 1.13.41-2.393-1.738-1.695 2.4-.349 1.074-2.177" class="prefix__cls-17" transform="translate(-193.621 -482.227)"/>
                    <path id="prefix__Fill-37" d="M289.7 568.632l1.074 2.177 2.4.349-1.738 1.695.41 2.393-2.149-1.13-2.149 1.13.41-2.393-1.738-1.695 2.4-.349 1.074-2.177" class="prefix__cls-17" transform="translate(-242.734 -482.227)"/>
                    <path id="prefix__Fill-38" d="M969.217 238.624h63.628a2.431 2.431 0 0 0 2.431-2.431V132.778a2.431 2.431 0 0 0-2.431-2.431h-63.628z" transform="translate(-821.943 -110.541)" style="fill:#f9a429;fill-rule:evenodd"/>
                    <path id="prefix__Fill-39" d="M991.977 246.809h58a2.431 2.431 0 0 0 2.431-2.431V147.3a2.431 2.431 0 0 0-2.431-2.431h-58z" class="prefix__cls-7" transform="translate(-841.245 -122.853)"/>
                    <path id="prefix__Fill-47" d="M1145.874 481.106h-15.5a1.8 1.8 0 1 1 0-3.606h15.5a1.8 1.8 0 0 1 0 3.606" class="prefix__cls-19" transform="translate(-957.08 -404.943)"/>
                    <path id="prefix__Fill-48" d="M1132.871 517.557h-21.181a1.8 1.8 0 1 1 0-3.606h21.181a1.8 1.8 0 1 1 0 3.606" class="prefix__cls-19" transform="translate(-941.238 -435.856)"/>
                    <path id="prefix__Fill-49" d="M1067.6 657.1h-51.522a1.046 1.046 0 1 1 0-2.092h51.522a1.046 1.046 0 1 1 0 2.092" class="prefix__cls-19" transform="translate(-860.792 -555.478)"/>
                    <path id="prefix__Fill-50" d="M1067.6 689.095h-51.522a1.046 1.046 0 1 1 0-2.092h51.522a1.046 1.046 0 1 1 0 2.092" class="prefix__cls-19" transform="translate(-860.792 -582.612)"/>
                    <path id="prefix__Fill-51" d="M1067.6 721.092h-51.522a1.046 1.046 0 1 1 0-2.092h51.522a1.046 1.046 0 1 1 0 2.092" class="prefix__cls-19" transform="translate(-860.792 -609.747)"/>
                    <path id="prefix__Fill-52" d="M1058.915 173.657a.353.353 0 0 0-.348.348v34.2a.353.353 0 0 0 .348.348h37.111a.353.353 0 0 0 .348-.348V174a.353.353 0 0 0-.348-.348zm37.111 36.419h-37.111a1.869 1.869 0 0 1-1.867-1.868V174a1.869 1.869 0 0 1 1.867-1.868h37.111a1.869 1.869 0 0 1 1.867 1.868v34.2a1.869 1.869 0 0 1-1.867 1.868z" class="prefix__cls-19" transform="translate(-896.427 -145.981)"/>
                    <g id="prefix__Group-14-2" data-name="Group-14" transform="translate(169.213 32.48)">
                        <path id="prefix__Fill-21-2" d="M62.6 94.714c-.721 1.064-1.249 1.108-2.031 0-.622-.881-1.846-2.882-1.846-3.9V80.681a1.852 1.852 0 0 1 1.846-1.846H62.6a1.852 1.852 0 0 1 1.846 1.846v10.136c0 1.015-1.2 2.944-1.846 3.9" class="prefix__cls-8" data-name="Fill-21" transform="translate(-49.803 -66.856)"/>
                        <path id="prefix__Fill-22-2" d="M62.6 78.835h-2.028a1.852 1.852 0 0 0-1.846 1.846v9.043c2.28.726 4.362-.717 5.724-2.343v-6.7a1.852 1.852 0 0 0-1.85-1.846" class="prefix__cls-9" data-name="Fill-22" transform="translate(-49.803 -66.856)"/>
                        <path id="prefix__Fill-23-2" d="M48.377 33.119c0 4.784-2.959 8.661-6.61 8.661s-6.61-3.878-6.61-8.661 2.96-8.661 6.61-8.661 6.61 3.878 6.61 8.661" class="prefix__cls-10" data-name="Fill-23" transform="translate(-29.815 -20.742)"/>
                        <g id="prefix__Group-13-2" data-name="Group-13" transform="translate(6.961 10.333)">
                            <g id="prefix__Group-11-2" data-name="Group-11" transform="translate(.561 .38)">
                                <path id="prefix__Path-3" d="M43.159 2.333A1.029 1.029 0 0 1 42.13 1.3v-.271a1.029 1.029 0 1 1 2.059 0V1.3a1.029 1.029 0 0 1-1.03 1.033z" class="prefix__cls-11" data-name="Path" transform="translate(-35.728)"/>
                                <path id="prefix__Path-4" d="M1.029 2.333A1.029 1.029 0 0 1 0 1.3v-.271a1.029 1.029 0 1 1 2.059 0V1.3a1.029 1.029 0 0 1-1.03 1.033z" class="prefix__cls-11" data-name="Path"/>
                            </g>
                            <g id="prefix__Group-12-3" data-name="Group-12" transform="translate(8.083)">
                                <path id="prefix__Line-2-9" d="M2 1.608a2.147 2.147 0 0 0 .456-.2A1.194 1.194 0 0 0 2.912 1" class="prefix__cls-12" data-name="Line-2" transform="translate(-1.696 -.848)"/>
                                <path id="prefix__Line-2-10" d="M0 .608a2.147 2.147 0 0 0 .456-.2A1.194 1.194 0 0 0 .912 0" class="prefix__cls-12" data-name="Line-2"/>
                                <path id="prefix__Line-2-11" d="M0 .608a2.147 2.147 0 0 0 .456-.2A1.194 1.194 0 0 0 .912 0" class="prefix__cls-12" data-name="Line-2" transform="rotate(6 -3.743 3.43)"/>
                                <path id="prefix__Line-2-12" d="M0 .608a2.147 2.147 0 0 0 .456-.2A1.194 1.194 0 0 0 .912 0" class="prefix__cls-12" data-name="Line-2" transform="rotate(11 -4.2 1.547)"/>
                            </g>
                            <g id="prefix__Group-12-4" data-name="Group-12" transform="rotate(180 .623 .8)">
                                <path id="prefix__Line-2-13" d="M0 0a2.147 2.147 0 0 1 .456.2 1.194 1.194 0 0 1 .456.408" class="prefix__cls-12" data-name="Line-2" transform="translate(.304 .841)"/>
                                <path id="prefix__Line-2-14" d="M0 0a2.147 2.147 0 0 1 .456.2 1.194 1.194 0 0 1 .456.408" class="prefix__cls-12" data-name="Line-2" transform="translate(0 .993)"/>
                                <path id="prefix__Line-2-15" d="M0 0a2.147 2.147 0 0 1 .456.2 1.194 1.194 0 0 1 .456.408" class="prefix__cls-13" data-name="Line-2" transform="rotate(-6.02 5.712 -2.318)"/>
                                <path id="prefix__Line-2-16" d="M0 0a2.147 2.147 0 0 1 .456.2 1.194 1.194 0 0 1 .456.408" class="prefix__cls-14" data-name="Line-2" transform="rotate(-11 .955 -.443)"/>
                            </g>
                        </g>
                        <path id="prefix__Fill-24-2" d="M31.66 23.772c-.753-.24.175-9.273 4.722-9.735s7.224 1.363 8.147 4.375a40.805 40.805 0 0 1 1.3 6.478s-1.564-.4-3.517-4.483a21.556 21.556 0 0 1-1.012-3.139c-3.88 6.555-8.887 6.743-9.64 6.504z" data-name="Fill-24" transform="translate(-26.651 -11.843)" style="fill:#a8693f;fill-rule:evenodd"/>
                        <path id="prefix__Fill-27-2" d="M66.988 109.368a3.5 3.5 0 0 1-2.308 1.34 3.5 3.5 0 0 1-2.308-1.34h4.616" class="prefix__cls-7" data-name="Fill-27" transform="translate(-52.894 -92.749)"/>
                        <path id="prefix__Combined-Shape-2" d="M11.739 0a7.821 7.821 0 0 1 6.1 2.662c3.126 3.873 1.921 10.671 2.1 14.759.168 3.814.389 5.517 1.747 7.611a13.511 13.511 0 0 1 1.866 5.055H0a12.23 12.23 0 0 1 1.764-5.055c1.321-1.952 1.321-1.952 2.073-7.611.363-5.842-1.428-9.777 1.917-14.759C6.874.992 9.828 0 11.739 0zm-.014 2.887c-3.248 0-5.839 3.7-6.281 5.628s.323 6.022 1.638 8.356 2.26 3.794 4.643 3.794 3.353-1.569 4.786-3.794 2.171-6.163 1.433-8.356-2.971-5.628-6.219-5.628z" data-name="Combined-Shape" style="fill:#464748;fill-rule:evenodd"/>
                    </g>
                    <path id="prefix__Fill-53" d="M1085.174 568.632l1.074 2.177 2.4.349-1.738 1.695.41 2.393-2.148-1.13-2.149 1.13.41-2.393-1.738-1.695 2.4-.349 1.074-2.177" class="prefix__cls-19" transform="translate(-917.331 -482.227)"/>
                    <path id="prefix__Fill-54" d="M1143.094 568.632l1.074 2.177 2.4.349-1.738 1.695.41 2.393-2.149-1.13-2.15 1.13.412-2.393-1.738-1.695 2.4-.349 1.074-2.177" class="prefix__cls-19" transform="translate(-966.45 -482.227)"/>
                    <path id="prefix__Fill-55" d="M1201 568.632l1.074 2.177 2.4.349-1.738 1.695.41 2.393-2.148-1.13-2.149 1.13.41-2.393-1.738-1.695 2.4-.349 1.074-2.177" class="prefix__cls-19" transform="translate(-1015.561 -482.227)"/>
                    <path id="prefix__Fill-56" d="M1258.915 568.632l1.074 2.177 2.4.349-1.738 1.695.41 2.393-2.148-1.13-2.15 1.13.41-2.393-1.738-1.695 2.4-.349 1.076-2.177" class="prefix__cls-19" transform="translate(-1064.672 -482.227)"/>
                    <path id="prefix__Fill-57" d="M515.959 239.783h-81.214V132.992h80.2q-.094 1.549-.1 3.121c0 1.038.035 2.068.094 3.091l1.012.327v100.252" transform="translate(-368.685 -112.784)" style="fill:#d7e8fa;fill-rule:evenodd"/>
                    <path id="prefix__Fill-58" d="M963.043 139.531l-1.012-.327c-.059-1.023-.094-2.053-.094-3.091s.033-2.088.1-3.121h1.01v6.539" transform="translate(-815.769 -112.784)" style="fill:#9dc5fb;fill-rule:evenodd"/>
                    <path id="prefix__Fill-59" d="M347.6 237.916h-15.61l.21-3.053h13.232V132.6h-6.192l.125-1.81h8.235v107.126" transform="translate(-281.544 -110.916)" style="fill:#06b29b;fill-rule:evenodd"/>
                    <path id="prefix__Fill-60" d="M346.6 246.809h-13.227l.871-12.61h8a1.046 1.046 0 0 0 0-2.092h-7.859l.191-2.77h7.668a1.046 1.046 0 1 0 0-2.092h-7.523l.191-2.77h7.332a1.046 1.046 0 0 0 0-2.092h-7.184l5.353-77.517h6.187v101.943" transform="translate(-282.716 -122.853)" style="fill:#dffffb;fill-rule:evenodd"/>
                    <path id="prefix__Fill-61" d="M350.855 657.1h-7.332l.144-2.092h7.188a1.046 1.046 0 0 1 0 2.092" class="prefix__cls-26" transform="translate(-291.324 -555.478)"/>
                    <path id="prefix__Fill-62" d="M348.982 689.095h-7.668l.144-2.092h7.523a1.046 1.046 0 1 1 0 2.092" class="prefix__cls-26" transform="translate(-289.451 -582.612)"/>
                    <path id="prefix__Fill-63" d="M347.107 721.092h-8l.145-2.092h7.859a1.046 1.046 0 0 1 0 2.092" class="prefix__cls-26" transform="translate(-287.577 -609.747)"/>
                    <path id="prefix__Fill-64" d="M976.643 239.783h-7.426V132.992H980.4l-.064 1.8h-7.663V236.74h4.074l-.106 3.044" transform="translate(-821.943 -112.784)" style="fill:#d98409;fill-rule:evenodd"/>
                    <path id="prefix__Fill-65" d="M996.051 246.809h-4.074V144.866h7.663l-2.729 77.517h-.384a1.046 1.046 0 1 0 0 2.092h.311l-.1 2.77h-.213a1.046 1.046 0 1 0 0 2.092h.14l-.1 2.77h-.042a1.046 1.046 0 0 0-.032 2.091l-.444 12.612" transform="translate(-841.245 -122.853)" style="fill:#fff4e4;fill-rule:evenodd"/>
                    <path id="prefix__Fill-66" d="M1016.385 657.1h-.312a1.046 1.046 0 1 1 0-2.092h.385l-.073 2.092" class="prefix__cls-29" transform="translate(-860.792 -555.478)"/>
                    <path id="prefix__Fill-67" d="M1016.214 689.095h-.14a1.046 1.046 0 1 1 0-2.092h.213l-.073 2.092" class="prefix__cls-29" transform="translate(-860.792 -582.612)"/>
                    <path id="prefix__Fill-68" d="M1016.042 721.091a1.046 1.046 0 0 1 .032-2.091h.043l-.074 2.091" class="prefix__cls-29" transform="translate(-860.792 -609.747)"/>
                    <path id="prefix__Fill-69" d="M406.49 147.888h85.366a2.431 2.431 0 0 0 2.431-2.431V2.431A2.431 2.431 0 0 0 491.856 0H406.49a2.431 2.431 0 0 0-2.431 2.431v143.026a2.431 2.431 0 0 0 2.431 2.431z" transform="translate(-342.662)" style="fill:#13d1f3;fill-rule:evenodd"/>
                    <path id="prefix__Fill-70" d="M437.587 159.071h77.673a2.431 2.431 0 0 0 2.431-2.431V22.263a2.431 2.431 0 0 0-2.431-2.431h-77.673a2.431 2.431 0 0 0-2.431 2.431V156.64a2.431 2.431 0 0 0 2.431 2.431z" class="prefix__cls-7" transform="translate(-369.033 -16.818)"/>
                    <path id="prefix__Fill-72" d="M590.763 318.813c-.02-.136.371-3.4.384-3.533.729-6.873 9.2-8.806 17.655-8.806 9.933 0 16.672 1.818 17.748 8.96.032.209.6 3.482.576 3.7-18.41.252-36.363-.323-36.363-.323" class="prefix__cls-31" transform="translate(-500.995 -259.905)"/>
                    <path id="prefix__Fill-75" d="M653.854 319.833s1.583-1.532 2.016-1.878c.4-.319 1.452-1.53 2.587-1.642.959-.094 2.313 1.165 2.438 1.261.514.394 2.495 1.743 2.012 1.743l4.777-7.689-1.091-.266-8.137 4.377-8.7-4.281-.819.17z" transform="translate(-550.33 -264.05)" style="fill:#bdccd4;fill-rule:evenodd"/>
                    <path id="prefix__Fill-84" d="M605.635 479.084h-38.516a2.462 2.462 0 0 1 0-4.925h38.517a2.462 2.462 0 1 1 0 4.925" class="prefix__cls-33" transform="translate(-478.857 -402.11)"/>
                    <path id="prefix__Fill-85" d="M627.59 528.872h-28.93a2.462 2.462 0 1 1 0-4.925h28.93a2.462 2.462 0 0 1 0 4.925" class="prefix__cls-33" transform="translate(-505.604 -444.332)"/>
                    <path id="prefix__Fill-86" d="M538.436 719.467h-70.373a1.428 1.428 0 1 1 0-2.857h70.373a1.428 1.428 0 1 1 0 2.857" class="prefix__cls-33" transform="translate(-395.728 -607.72)"/>
                    <path id="prefix__Fill-87" d="M538.436 763.167h-70.373a1.428 1.428 0 1 1 0-2.857h70.373a1.428 1.428 0 0 1 0 2.857" class="prefix__cls-33" transform="translate(-395.728 -644.78)"/>
                    <path id="prefix__Fill-88" d="M538.436 806.868h-70.373a1.429 1.429 0 0 1 0-2.858h70.373a1.429 1.429 0 0 1 0 2.858" class="prefix__cls-33" transform="translate(-395.728 -681.839)"/>
                    <path id="prefix__Fill-89" d="M528.126 60.43a.754.754 0 0 0-.753.753V107.9a.754.754 0 0 0 .753.753h50.687a.754.754 0 0 0 .754-.753V61.183a.754.754 0 0 0-.754-.753zm50.687 49.742h-50.687a2.275 2.275 0 0 1-2.273-2.273V61.183a2.275 2.275 0 0 1 2.273-2.273h50.687a2.275 2.275 0 0 1 2.273 2.273V107.9a2.275 2.275 0 0 1-2.273 2.273z" transform="translate(-445.949 -49.959)" style="fill:#83ecff;fill-rule:evenodd"/>
                    <path id="prefix__Fill-90" d="M522.264 598.631l1.468 2.973 3.281.477-2.374 2.315.561 3.268-2.936-1.543-2.935 1.543.561-3.268-2.374-2.315 3.281-.477 1.467-2.973" class="prefix__cls-19" transform="translate(-438.878 -507.668)"/>
                    <path id="prefix__Fill-91" d="M601.365 598.631l1.468 2.973 3.282.477-2.375 2.315.561 3.268-2.936-1.543-2.934 1.543.561-3.268-2.375-2.315 3.282-.477 1.466-2.973" class="prefix__cls-19" transform="translate(-505.96 -507.668)"/>
                    <path id="prefix__Fill-92" d="M680.465 598.631l1.468 2.973 3.282.477-2.375 2.315.561 3.268-2.936-1.543-2.934 1.543.561-3.268-2.375-2.315L679 601.6l1.466-2.973" class="prefix__cls-19" transform="translate(-573.041 -507.668)"/>
                    <path id="prefix__Fill-93" d="M759.567 598.631l1.466 2.973 3.282.477-2.375 2.315.561 3.268-2.934-1.543-2.936 1.543.561-3.268-2.375-2.315 3.282-.477 1.468-2.973" class="prefix__cls-19" transform="translate(-640.121 -507.668)"/>
                    <path id="prefix__Fill-94" d="M839.927 598.631l1.466 2.973 3.282.477-2.375 2.319.561 3.268-2.934-1.543-2.936 1.543.561-3.268-2.375-2.315 3.282-.477 1.468-2.973" class="prefix__cls-19" transform="translate(-708.271 -507.668)"/>
                    <g id="prefix__Group-9" transform="translate(94.605 43.341)">
                        <path id="prefix__Path-5" d="M29.794 8.837c-.562 0-1.017-.209-1.017-.466V6.122c0-2.6-4.609-4.71-10.274-4.71S8.23 3.525 8.23 6.122V11.1c0 .258-.455.466-1.017.466S6.2 11.355 6.2 11.1V6.122C6.2 3.011 11.716.48 18.5.48s12.311 2.531 12.311 5.642v2.249c0 .257-.455.466-1.017.466z" class="prefix__cls-11" data-name="Path" transform="translate(-5.254 -.48)"/>
                        <path id="prefix__Path-6" d="M2.122 65a2.122 2.122 0 1 0 2.122 2.122A2.124 2.124 0 0 0 2.122 65z" data-name="Path" transform="translate(0 -55.196)" style="fill:#78d6d1"/>
                        <g id="prefix__Group" transform="translate(20.365 6.461)">
                            <path id="prefix__Path-7" d="M7.236 8.205h-.555a1.072 1.072 0 0 1-1.145-.98.961.961 0 0 1 .555-.84V3.578A1.772 1.772 0 0 0 4.2 1.96a1.772 1.772 0 0 0-1.89 1.618v2.807a.961.961 0 0 1 .555.84 1.072 1.072 0 0 1-1.145.98h-.552a1.072 1.072 0 0 1-1.145-.98V3.578C.023 1.6 1.9 0 4.2 0s4.18 1.605 4.18 3.578v3.647a1.072 1.072 0 0 1-1.144.98z" data-name="Path" transform="translate(-.023)" style="fill:#3d5868"/>
                        </g>
                    </g>
                    <path id="prefix__Fill-73" d="M681.892 218.117c-.849-1.2-3.685-1.525-3.685-2.912l1.164-13.832a2.529 2.529 0 0 1 2.521-2.522h2.775a2.53 2.53 0 0 1 2.522 2.522l.541 13.832c0 1.387-2.18 1.609-3.063 2.912-.985 1.453-1.707 1.513-2.775 0z" class="prefix__cls-8" transform="translate(-575.152 -168.635)"/>
                    <path id="prefix__Fill-74" d="M685.523 198.851h-2.775a2.529 2.529 0 0 0-2.521 2.522l-1.011 12.271c3.115.992 7.321-1.024 9.181-3.245l-.353-9.026a2.529 2.529 0 0 0-2.522-2.522" class="prefix__cls-9" transform="translate(-576.009 -168.635)"/>
                    <path id="prefix__Fill-77" d="M656.922 284.454l-4.084 3.887s4.162 7.4 4.391 7.4 3.533-4.081 3.533-4.081l2.114-.037 3.34 3.5 3.879-6.864-3.957-4.194s-3.379 6.528-3.993 6.681-.618.23-1.115-.154-4.107-6.144-4.107-6.144" class="prefix__cls-31" transform="translate(-553.638 -240.905)"/>
                    <g id="prefix__Group-10" transform="translate(96.159 15.385)">
                        <path id="prefix__Fill-71" d="M13.922 16.875c-.058-.173-1.5-8.467-1.676-11.692S17.431 1.5 17.431 1.5 21.807-.865 24.975.345a12.765 12.765 0 0 1 6.763 5.779c1.441 2.534-1.266 10.432-1.266 10.432l-16.551.319" class="prefix__cls-37" transform="translate(-10.382)"/>
                        <path id="prefix__Fill-78" d="M40.35 34.759c0 6.31-3.755 11.426-8.386 11.426s-8.385-5.115-8.385-11.426 3.753-11.426 8.385-11.426 8.386 5.115 8.386 11.426" class="prefix__cls-8" transform="translate(-19.996 -19.787)"/>
                        <g id="prefix__Group-2" data-name="Group" transform="translate(7.24 12.38)">
                            <path id="prefix__Path-8" d="M48.663 3.551a1.14 1.14 0 0 1-1.14-1.14v-.3a1.14 1.14 0 1 1 2.279 0v.3a1.14 1.14 0 0 1-1.139 1.14z" class="prefix__cls-11" data-name="Path" transform="translate(-40.435 -.968)"/>
                            <path id="prefix__Path-9" d="M2.019 3.551a1.14 1.14 0 0 1-1.14-1.14v-.3a1.14 1.14 0 0 1 2.279 0v.3a1.14 1.14 0 0 1-1.139 1.14z" class="prefix__cls-11" data-name="Path" transform="translate(-.879 -.968)"/>
                        </g>
                        <path id="prefix__Fill-79" d="M4.441 85.142c.784 1.651.527 3.414-.574 3.937s-2.629-.392-3.413-2.043-.527-3.414.573-3.937 2.63.392 3.414 2.043" class="prefix__cls-8" transform="translate(0 -70.347)"/>
                        <path id="prefix__Fill-80" d="M123.274 85.142c-.784 1.651-.527 3.414.573 3.937s2.629-.392 3.413-2.043.529-3.414-.573-3.937-2.629.392-3.413 2.043" class="prefix__cls-8" transform="translate(-104.157 -70.347)"/>
                        <path id="prefix__Fill-81" d="M61.718 129.378s-1.665 2.7-3.72 2.7-3.72-2.7-3.72-2.7h7.44" class="prefix__cls-7" transform="translate(-46.031 -109.719)"/>
                        <path id="prefix__Fill-82" d="M26.807 21.166c3.455-2.419 5.01-2.016 7.6 1.958s5.7 4.044 5.7 4.044l.4-4.121s-3.861-7.468-9.044-6.489-8.122 5.642-8.122 5.642-.252 8.745.471 9.043.805-2.822 1.323-3.456-.518-3.629.173-5.011 1.5-1.613 1.5-1.613" class="prefix__cls-37" transform="translate(-19.758 -13.967)"/>
                        <path id="prefix__Fill-83" d="M119.539 76.942c1.207 1.321.749 6.566 1.383 6.508s.865-5.011.691-5.529-2.074-.979-2.074-.979" class="prefix__cls-37" transform="translate(-101.375 -65.25)"/>
                    </g>
                </g>
            </g>
            <g id="prefix__Group_1424-2" data-name="Group 1424" transform="rotate(-165.02 93.334 67.35)">
                <g id="prefix__Group_796" data-name="Group 796">
                    <g id="prefix__Group_793" data-name="Group 793">
                        <g id="prefix__Group_791" data-name="Group 791">
                            <g id="prefix__Group_790" data-name="Group 790">
                                <path id="prefix__Path_2914" d="M5.916 0L0 9.235l30.471 19.194 5.916-9.235z" data-name="Path 2914" transform="translate(12.441 7.799)" style="fill:#909ba0"/>
                                <path id="prefix__Path_2915" d="M1.315 3.319l-.068.107c-1.866 2.913-1.608 6.409.577 7.809l24.871 16.2 7.252-10.8L8.65.579c-2.185-1.4-5.469-.173-7.335 2.74z" data-name="Path 2915" style="fill:#2e4661"/>
                            </g>
                        </g>
                        <g id="prefix__Group_792" data-name="Group 792" transform="translate(40.343 15.82)">
                            <path id="prefix__Path_2916" d="M50.3 4.894a33.011 33.011 0 1 0 10.172 46.44A33.011 33.011 0 0 0 50.3 4.894z" data-name="Path 2916" style="stroke:#2e4661;stroke-miterlimit:10;stroke-width:7px;fill:none"/>
                        </g>
                    </g>
                    <g id="prefix__Group_795" data-name="Group 795" transform="translate(65.852 23.66)">
                        <g id="prefix__Group_794" data-name="Group 794" transform="translate(9.084 .979)" style="opacity:.22">
                            <path id="prefix__Path_2917" d="M8.228 42.2a20.212 20.212 0 0 0 11.648-21.557A20.171 20.171 0 0 0 1.832 3.974C-.714 3.751-.556-.214 1.993.009A24.266 24.266 0 0 1 23.5 18.522a24.22 24.22 0 0 1-10.863 25.827 21.947 21.947 0 0 1-2.6 1.38c-2.319 1.056-4.14-2.47-1.8-3.534z" data-name="Path 2917" style="fill:#fff"/>
                        </g>
                        <circle id="prefix__Ellipse_181" cx="2.613" cy="2.613" r="2.613" data-name="Ellipse 181" transform="rotate(65.572 2.379 3.693)" style="opacity:.31;fill:#fff"/>
                    </g>
                </g>
                <path id="prefix__Path_2918" d="M.141 10.64L7.041.367A.828.828 0 0 1 8.118.1l.122.063a.828.828 0 0 1 .293 1.2L1.525 11.58a.828.828 0 0 1-1.165.205l-.014-.01a.828.828 0 0 1-.205-1.135z" data-name="Path 2918" transform="translate(26.745 16.332)" style="fill:#a36652"/>
                <g id="prefix__Group_797" data-name="Group 797" transform="translate(43.745 19.693)">
                    <path id="prefix__Path_2919" d="M17.557 4.2a28.1 28.1 0 0 0-2.234 49.6 28.114 28.114 0 0 0 42.362-25.527 28.109 28.109 0 0 0-25.8-26.7A28.126 28.126 0 0 0 17.557 4.2a.756.756 0 0 1-.648-1.365A29.946 29.946 0 0 1 36.7.845a29.606 29.606 0 0 1 15.334 48.078 29.615 29.615 0 0 1-50.025-8.585 29.612 29.612 0 0 1 14.9-37.5.756.756 0 0 1 .648 1.362z" data-name="Path 2919" style="fill:#6a8678"/>
                </g>
            </g>
        </g>
    </g>
</svg>
